<svg id="svg" version="1.1" xmlns="http://www.w3.org/2000/svg" xmlns:xlink="http://www.w3.org/1999/xlink" width="400" height="400" viewBox="0, 0, 400,400"><g id="svgg"><path id="path0" d="M348.369 15.082 C 323.616 23.356,303.217 30.221,303.039 30.338 C 302.688 30.569,115.158 235.982,115.075 236.227 C 115.047 236.308,120.879 240.088,128.034 244.625 L 141.044 252.875 149.334 265.904 L 157.625 278.932 158.529 278.154 C 159.026 277.725,205.401 235.419,261.586 184.140 L 363.740 90.905 378.782 45.765 C 387.055 20.938,393.875 0.484,393.939 0.313 C 394.134 -0.218,394.529 -0.346,348.369 15.082 M49.187 223.438 L 39.251 233.377 59.750 253.875 C 71.025 265.150,80.247 274.487,80.242 274.624 C 80.213 275.592,31.800 336.371,31.110 336.308 C 6.077 334.012,-9.390 363.471,6.452 383.271 C 23.389 404.439,58.621 391.681,57.715 364.708 L 57.625 362.041 88.496 337.767 L 119.367 313.494 139.934 334.059 L 160.500 354.624 170.468 344.625 L 180.436 334.625 155.350 299.157 L 130.263 263.689 94.754 238.595 C 75.225 224.793,59.218 213.500,59.184 213.500 C 59.150 213.500,54.651 217.972,49.187 223.438 " stroke="none" fill="#040404" fill-rule="evenodd"></path><path id="path1" d="" stroke="none" fill="#080404" fill-rule="evenodd"></path><path id="path2" d="" stroke="none" fill="#080404" fill-rule="evenodd"></path><path id="path3" d="" stroke="none" fill="#080404" fill-rule="evenodd"></path><path id="path4" d="" stroke="none" fill="#080404" fill-rule="evenodd"></path><path id="path5" d="" stroke="none" fill="#080404" fill-rule="evenodd"></path><path id="path6" d="" stroke="none" fill="#080404" fill-rule="evenodd"></path><path id="path7" d="" stroke="none" fill="#080404" fill-rule="evenodd"></path><path id="path8" d="" stroke="none" fill="#080404" fill-rule="evenodd"></path></g></svg>