<svg id="svg" version="1.1" xmlns="http://www.w3.org/2000/svg" xmlns:xlink="http://www.w3.org/1999/xlink" width="400" height="400" viewBox="0, 0, 400,400"><g id="svgg"><path id="path0" d="M190.660 0.057 C 190.590 0.123,189.360 0.201,185.083 0.412 C 183.507 0.489,178.659 0.952,178.077 1.080 C 177.642 1.176,174.846 1.500,173.726 1.584 C 173.255 1.619,171.267 1.913,169.309 2.237 C 167.352 2.561,165.467 2.862,165.122 2.906 C 164.776 2.950,163.539 3.183,162.372 3.424 C 161.205 3.665,160.063 3.888,159.833 3.920 C 159.604 3.951,159.398 3.992,159.375 4.009 C 159.271 4.090,157.451 4.398,157.292 4.362 C 157.223 4.346,157.167 4.413,157.167 4.510 C 157.167 4.607,157.095 4.642,157.006 4.587 C 156.918 4.533,156.225 4.649,155.465 4.845 C 154.193 5.173,153.237 5.387,152.167 5.585 C 151.938 5.627,151.225 5.817,150.583 6.006 C 149.942 6.196,149.304 6.381,149.167 6.417 C 149.029 6.452,148.662 6.559,148.351 6.653 C 148.040 6.747,147.725 6.786,147.650 6.740 C 147.575 6.693,147.379 6.727,147.215 6.816 C 147.051 6.904,146.242 7.172,145.417 7.412 C 144.592 7.653,143.167 8.077,142.250 8.355 C 141.333 8.633,140.358 8.925,140.083 9.003 C 138.816 9.364,134.698 10.714,134.250 10.916 C 133.975 11.040,132.962 11.402,132.000 11.720 C 131.037 12.039,129.809 12.494,129.271 12.733 C 128.732 12.972,128.190 13.167,128.066 13.167 C 127.942 13.167,127.408 13.366,126.879 13.609 C 126.350 13.852,125.729 14.123,125.500 14.212 C 125.271 14.301,124.896 14.470,124.667 14.588 C 124.438 14.706,124.195 14.813,124.128 14.825 C 124.013 14.847,123.149 15.181,122.417 15.488 C 121.334 15.942,119.738 16.580,119.667 16.587 C 119.621 16.592,119.056 16.864,118.411 17.192 C 117.766 17.520,117.054 17.846,116.828 17.917 C 116.275 18.089,111.939 20.188,111.833 20.333 C 111.787 20.397,111.525 20.503,111.250 20.570 C 110.975 20.637,110.600 20.822,110.417 20.982 C 110.233 21.141,109.521 21.524,108.833 21.831 C 108.146 22.139,107.304 22.565,106.962 22.779 C 106.620 22.992,106.257 23.167,106.156 23.167 C 106.055 23.167,105.525 23.429,104.977 23.750 C 104.430 24.071,103.911 24.333,103.824 24.333 C 103.738 24.333,103.667 24.392,103.667 24.463 C 103.667 24.535,103.460 24.689,103.208 24.805 C 102.668 25.055,101.859 25.504,100.221 26.465 C 99.563 26.851,98.963 27.169,98.888 27.171 C 98.812 27.174,98.455 27.399,98.095 27.671 C 97.735 27.944,97.381 28.167,97.309 28.167 C 97.142 28.167,95.625 29.193,95.461 29.417 C 95.379 29.528,95.337 29.528,95.333 29.417 C 95.330 29.312,95.282 29.315,95.206 29.425 C 95.071 29.616,93.467 30.575,93.333 30.543 C 93.287 30.532,93.190 30.631,93.117 30.762 C 93.043 30.893,92.903 31.000,92.806 31.000 C 92.708 31.000,92.262 31.269,91.814 31.598 C 91.366 31.926,91.000 32.138,91.000 32.068 C 91.000 31.999,90.831 32.098,90.625 32.289 C 90.114 32.761,87.211 34.667,87.002 34.667 C 86.909 34.667,86.833 34.724,86.833 34.794 C 86.833 34.905,86.114 35.426,83.667 37.088 C 83.047 37.509,82.523 37.894,80.917 39.109 C 79.136 40.455,78.975 40.580,78.736 40.804 C 78.606 40.925,78.500 40.975,78.500 40.916 C 78.500 40.856,78.288 41.020,78.028 41.279 C 77.769 41.538,77.229 41.975,76.829 42.250 C 76.429 42.525,75.910 42.927,75.676 43.143 C 75.442 43.359,74.931 43.766,74.542 44.046 C 74.152 44.327,73.833 44.631,73.833 44.723 C 73.833 44.814,73.792 44.848,73.743 44.798 C 73.693 44.748,73.442 44.904,73.186 45.145 C 72.930 45.386,72.512 45.733,72.258 45.917 C 72.005 46.100,71.601 46.456,71.361 46.708 C 71.122 46.960,70.873 47.167,70.809 47.167 C 70.745 47.167,70.479 47.373,70.218 47.625 C 69.957 47.877,69.374 48.383,68.924 48.750 C 68.473 49.117,67.987 49.538,67.844 49.686 C 67.701 49.834,66.883 50.568,66.026 51.318 C 62.068 54.784,54.784 62.068,51.318 66.026 C 50.568 66.883,49.834 67.701,49.686 67.844 C 49.538 67.987,49.117 68.473,48.750 68.924 C 48.383 69.374,47.877 69.957,47.625 70.218 C 47.373 70.479,47.167 70.745,47.167 70.809 C 47.167 70.873,46.960 71.122,46.708 71.361 C 46.456 71.601,46.100 72.005,45.917 72.258 C 45.733 72.512,45.386 72.930,45.145 73.186 C 44.904 73.442,44.748 73.693,44.798 73.743 C 44.848 73.792,44.814 73.833,44.723 73.833 C 44.631 73.833,44.327 74.152,44.046 74.542 C 43.766 74.931,43.359 75.442,43.143 75.676 C 42.927 75.910,42.525 76.429,42.250 76.829 C 41.975 77.229,41.538 77.769,41.279 78.028 C 41.020 78.288,40.856 78.500,40.916 78.500 C 40.975 78.500,40.925 78.606,40.804 78.736 C 40.580 78.975,40.455 79.136,39.109 80.917 C 37.894 82.523,37.509 83.047,37.088 83.667 C 35.426 86.114,34.905 86.833,34.794 86.833 C 34.724 86.833,34.667 86.909,34.667 87.002 C 34.667 87.211,32.761 90.114,32.289 90.625 C 32.098 90.831,31.999 91.000,32.068 91.000 C 32.138 91.000,31.926 91.366,31.598 91.814 C 31.269 92.262,31.000 92.708,31.000 92.806 C 31.000 92.903,30.893 93.043,30.762 93.117 C 30.631 93.190,30.511 93.325,30.494 93.417 C 30.448 93.681,29.617 95.071,29.425 95.206 C 29.315 95.282,29.312 95.330,29.417 95.333 C 29.528 95.337,29.528 95.379,29.417 95.461 C 29.193 95.625,28.167 97.142,28.167 97.309 C 28.167 97.381,27.944 97.735,27.671 98.095 C 27.399 98.455,27.174 98.812,27.171 98.888 C 27.169 98.963,26.849 99.563,26.461 100.221 C 26.073 100.879,25.622 101.679,25.458 102.000 C 25.090 102.722,24.611 103.556,24.500 103.667 C 24.404 103.763,23.717 105.013,23.356 105.750 C 23.221 106.025,23.033 106.400,22.939 106.583 C 22.565 107.313,21.477 109.535,21.324 109.882 C 21.235 110.084,21.018 110.475,20.843 110.750 C 20.668 111.025,20.519 111.375,20.512 111.528 C 20.505 111.681,20.437 111.831,20.359 111.861 C 20.208 111.921,18.129 116.147,17.917 116.828 C 17.846 117.054,17.520 117.766,17.192 118.411 C 16.864 119.056,16.592 119.621,16.587 119.667 C 16.580 119.738,15.942 121.334,15.488 122.417 C 15.170 123.175,14.884 123.925,14.866 124.046 C 14.856 124.117,14.741 124.379,14.611 124.629 C 14.480 124.879,14.301 125.271,14.212 125.500 C 14.123 125.729,13.852 126.350,13.609 126.879 C 13.366 127.408,13.167 127.942,13.167 128.066 C 13.167 128.190,12.972 128.732,12.733 129.271 C 12.494 129.809,12.039 131.037,11.720 132.000 C 11.402 132.962,11.040 133.975,10.916 134.250 C 10.658 134.822,9.366 138.807,8.835 140.667 C 8.639 141.354,8.417 142.067,8.342 142.250 C 8.266 142.433,8.125 142.883,8.027 143.250 C 7.588 144.892,6.962 146.942,6.816 147.215 C 6.727 147.379,6.693 147.575,6.740 147.650 C 6.786 147.725,6.747 148.040,6.653 148.351 C 6.559 148.662,6.452 149.029,6.417 149.167 C 6.381 149.304,6.196 149.942,6.006 150.583 C 5.817 151.225,5.627 151.938,5.585 152.167 C 5.387 153.237,5.173 154.193,4.845 155.465 C 4.649 156.225,4.533 156.918,4.587 157.006 C 4.642 157.095,4.607 157.167,4.510 157.167 C 4.413 157.167,4.346 157.223,4.362 157.292 C 4.398 157.451,4.090 159.271,4.009 159.375 C 3.992 159.398,3.951 159.604,3.920 159.833 C 3.888 160.063,3.672 161.188,3.440 162.333 C 3.208 163.479,2.974 164.717,2.921 165.083 C 2.868 165.450,2.560 167.352,2.237 169.309 C 1.913 171.267,1.619 173.255,1.584 173.726 C 1.500 174.846,1.176 177.642,1.080 178.077 C 0.942 178.703,0.486 183.564,0.408 185.250 C 0.365 186.167,0.280 187.404,0.218 188.000 C 0.071 189.427,-0.003 211.167,0.140 211.167 C 0.200 211.167,0.254 211.485,0.260 211.875 C 0.294 214.266,0.629 218.075,1.262 223.250 C 1.407 224.442,1.549 225.792,1.576 226.250 C 1.604 226.708,1.642 227.083,1.660 227.083 C 1.679 227.083,1.713 227.233,1.736 227.417 C 1.759 227.600,1.833 228.125,1.901 228.583 C 1.968 229.042,2.060 229.679,2.105 230.000 C 2.150 230.321,2.295 231.183,2.429 231.917 C 2.562 232.650,2.708 233.550,2.752 233.917 C 2.797 234.283,2.884 234.808,2.945 235.083 C 3.006 235.358,3.068 235.705,3.082 235.854 C 3.119 236.244,4.030 240.870,4.129 241.167 C 4.174 241.304,4.236 241.604,4.266 241.833 C 4.429 243.088,4.529 243.577,4.679 243.856 C 4.770 244.027,4.809 244.167,4.765 244.167 C 4.721 244.167,4.800 244.555,4.941 245.030 C 5.234 246.018,5.320 246.382,5.424 247.083 C 5.464 247.358,5.690 248.258,5.926 249.083 C 6.162 249.908,6.393 250.808,6.440 251.083 C 6.486 251.358,6.568 251.696,6.621 251.833 C 6.674 251.971,6.729 252.158,6.743 252.250 C 6.758 252.342,6.812 252.529,6.865 252.667 C 6.918 252.804,7.093 253.404,7.255 254.000 C 7.416 254.596,7.655 255.458,7.785 255.917 C 7.916 256.375,8.041 256.825,8.064 256.917 C 8.172 257.355,9.108 260.316,9.777 262.333 C 10.188 263.571,10.544 264.658,10.569 264.750 C 10.595 264.842,10.690 265.104,10.781 265.333 C 10.872 265.563,11.343 266.912,11.829 268.333 C 12.315 269.754,12.768 270.992,12.836 271.083 C 12.904 271.175,13.015 271.438,13.082 271.667 C 13.191 272.035,13.969 273.961,14.607 275.442 C 14.732 275.731,14.833 276.087,14.833 276.234 C 14.833 276.380,14.908 276.500,15.000 276.500 C 15.092 276.500,15.155 276.556,15.140 276.625 C 15.105 276.785,15.443 277.657,16.142 279.213 C 16.339 279.651,16.500 280.119,16.500 280.254 C 16.500 280.390,16.570 280.500,16.655 280.500 C 16.783 280.500,17.026 280.977,17.080 281.333 C 17.097 281.445,17.937 283.260,18.342 284.057 C 18.520 284.410,18.667 284.773,18.667 284.864 C 18.667 284.955,18.925 285.491,19.241 286.056 C 19.557 286.621,19.813 287.150,19.810 287.231 C 19.807 287.313,19.868 287.425,19.944 287.481 C 20.113 287.605,20.667 288.639,20.667 288.831 C 20.667 288.906,20.922 289.420,21.234 289.972 C 21.546 290.524,21.759 291.019,21.706 291.071 C 21.654 291.124,21.699 291.167,21.806 291.167 C 21.912 291.167,22.000 291.257,22.000 291.368 C 22.000 291.625,23.015 293.666,23.292 293.965 C 23.406 294.089,23.500 294.305,23.500 294.446 C 23.500 294.587,23.718 295.024,23.984 295.419 C 24.250 295.813,24.521 296.311,24.586 296.526 C 24.652 296.741,24.888 297.160,25.111 297.458 C 25.334 297.756,25.457 298.001,25.383 298.003 C 25.310 298.004,25.363 298.076,25.500 298.163 C 25.637 298.250,25.750 298.380,25.751 298.452 C 25.751 298.524,26.010 298.996,26.327 299.500 C 26.643 300.004,27.056 300.717,27.244 301.083 C 27.431 301.450,27.791 302.067,28.042 302.455 C 28.294 302.843,28.500 303.194,28.500 303.235 C 28.500 303.276,28.800 303.761,29.167 304.313 C 29.533 304.865,29.833 305.390,29.833 305.478 C 29.833 305.566,29.894 305.664,29.967 305.694 C 30.041 305.725,30.397 306.237,30.759 306.833 C 31.121 307.428,31.509 308.066,31.622 308.249 C 31.735 308.433,31.875 308.715,31.933 308.875 C 31.991 309.035,32.105 309.167,32.186 309.167 C 32.267 309.167,32.333 309.245,32.333 309.340 C 32.333 309.436,32.487 309.678,32.674 309.879 C 32.861 310.080,33.363 310.808,33.790 311.497 C 34.217 312.186,34.816 313.087,35.121 313.500 C 35.426 313.912,35.687 314.325,35.701 314.417 C 35.715 314.508,35.839 314.696,35.976 314.833 C 36.114 314.971,36.419 315.386,36.655 315.756 C 36.891 316.126,37.178 316.538,37.295 316.672 C 38.034 317.526,39.631 319.814,39.546 319.898 C 39.490 319.954,39.525 320.000,39.624 320.000 C 39.723 320.000,40.037 320.319,40.321 320.708 C 40.605 321.098,41.062 321.679,41.335 322.000 C 41.609 322.321,42.550 323.507,43.427 324.636 C 44.304 325.765,45.148 326.822,45.303 326.986 C 45.457 327.149,45.733 327.494,45.917 327.752 C 46.100 328.010,46.456 328.428,46.708 328.681 C 46.960 328.934,47.167 329.179,47.167 329.224 C 47.167 329.270,47.373 329.524,47.625 329.789 C 47.877 330.053,48.226 330.452,48.401 330.676 C 49.106 331.580,52.289 335.099,52.958 335.715 C 53.165 335.905,53.333 336.118,53.333 336.189 C 53.333 336.524,64.760 347.731,66.967 349.561 C 67.362 349.888,67.887 350.339,68.134 350.563 C 68.381 350.787,68.781 351.146,69.023 351.360 C 69.265 351.575,69.715 351.979,70.023 352.258 C 70.331 352.537,70.637 352.784,70.702 352.806 C 70.767 352.828,71.034 353.050,71.296 353.298 C 71.557 353.547,72.019 353.938,72.322 354.167 C 72.624 354.396,72.995 354.702,73.144 354.846 C 73.294 354.991,73.717 355.327,74.083 355.593 C 74.450 355.859,74.915 356.247,75.117 356.455 C 75.319 356.663,75.549 356.833,75.628 356.833 C 75.706 356.833,75.987 357.058,76.250 357.333 C 76.513 357.608,76.827 357.833,76.946 357.833 C 77.066 357.833,77.258 357.987,77.374 358.176 C 77.489 358.364,77.935 358.735,78.365 359.001 C 78.794 359.267,79.319 359.630,79.531 359.808 C 80.710 360.797,81.845 361.667,81.958 361.667 C 82.029 361.667,82.292 361.857,82.543 362.090 C 82.795 362.323,83.000 362.456,83.000 362.386 C 83.000 362.316,83.117 362.426,83.259 362.630 C 83.402 362.833,83.618 363.000,83.739 363.000 C 83.860 363.000,84.050 363.110,84.162 363.244 C 84.273 363.378,84.789 363.768,85.307 364.111 C 85.826 364.454,86.349 364.831,86.470 364.950 C 86.591 365.069,86.747 365.167,86.815 365.167 C 86.927 365.167,88.440 366.226,88.951 366.662 C 89.062 366.756,89.199 366.833,89.256 366.833 C 89.313 366.833,89.778 367.133,90.290 367.500 C 90.802 367.867,91.292 368.167,91.378 368.167 C 91.465 368.167,91.819 368.392,92.167 368.667 C 92.514 368.942,92.853 369.167,92.920 369.167 C 92.988 369.167,93.464 369.453,93.980 369.803 C 94.495 370.153,95.274 370.617,95.710 370.834 C 96.146 371.050,96.627 371.364,96.777 371.530 C 96.928 371.697,97.141 371.833,97.251 371.833 C 97.360 371.833,97.742 372.044,98.100 372.302 C 98.457 372.559,98.862 372.823,99.000 372.888 C 99.138 372.953,99.550 373.189,99.917 373.411 C 100.283 373.634,100.764 373.898,100.984 373.997 C 101.205 374.097,101.692 374.383,102.068 374.634 C 102.443 374.885,103.313 375.380,104.000 375.735 C 104.688 376.089,105.377 376.489,105.531 376.623 C 105.686 376.757,105.876 376.826,105.954 376.778 C 106.033 376.730,106.424 376.910,106.823 377.179 C 107.223 377.447,107.635 377.667,107.738 377.667 C 107.841 377.667,108.111 377.796,108.337 377.955 C 108.563 378.113,108.849 378.257,108.972 378.275 C 109.095 378.293,109.326 378.426,109.486 378.571 C 109.646 378.715,109.896 378.833,110.043 378.833 C 110.190 378.833,110.410 378.927,110.533 379.042 C 110.772 379.264,113.667 380.750,113.862 380.750 C 113.926 380.750,114.377 380.950,114.864 381.195 C 116.277 381.904,118.413 382.833,118.632 382.833 C 118.743 382.833,118.833 382.908,118.833 383.000 C 118.833 383.092,118.944 383.167,119.078 383.167 C 119.288 383.167,120.019 383.480,121.012 383.996 C 121.156 384.071,122.544 384.636,124.096 385.250 C 125.647 385.865,127.254 386.524,127.667 386.715 C 128.079 386.906,128.492 387.078,128.583 387.098 C 128.858 387.156,130.245 387.647,130.851 387.900 C 131.162 388.030,131.492 388.151,131.583 388.169 C 131.675 388.186,132.228 388.381,132.813 388.601 C 134.676 389.302,138.817 390.667,139.082 390.667 C 139.223 390.667,139.468 390.738,139.627 390.825 C 140.114 391.092,147.040 393.167,147.444 393.167 C 147.569 393.167,147.801 393.234,147.961 393.316 C 148.120 393.398,148.775 393.587,149.417 393.737 C 150.962 394.097,150.893 394.078,151.083 394.197 C 151.175 394.254,151.625 394.353,152.083 394.417 C 152.542 394.482,153.742 394.743,154.750 394.999 C 156.451 395.430,158.241 395.837,158.833 395.926 C 159.627 396.045,160.571 396.230,161.750 396.498 C 163.022 396.786,164.092 396.984,165.000 397.098 C 165.229 397.127,165.694 397.220,166.033 397.306 C 166.372 397.391,166.684 397.427,166.725 397.386 C 166.766 397.345,167.089 397.387,167.442 397.480 C 167.795 397.573,168.908 397.770,169.917 397.919 C 170.925 398.067,171.975 398.226,172.250 398.272 C 172.525 398.318,173.425 398.420,174.250 398.499 C 175.075 398.579,176.650 398.757,177.750 398.895 C 181.290 399.339,183.217 399.521,184.707 399.553 C 185.508 399.570,186.165 399.621,186.166 399.667 C 186.173 399.927,210.268 400.038,212.833 399.789 C 213.521 399.722,214.683 399.629,215.417 399.583 C 217.521 399.449,220.264 399.175,222.167 398.911 C 223.129 398.776,224.367 398.631,224.917 398.588 C 226.589 398.456,230.379 397.933,231.583 397.669 C 232.703 397.424,233.727 397.271,234.208 397.279 C 234.460 397.282,234.667 397.240,234.667 397.184 C 234.667 397.129,234.835 397.078,235.042 397.071 C 235.591 397.053,237.527 396.689,239.389 396.253 C 240.015 396.106,240.840 395.946,241.222 395.898 C 241.604 395.849,243.267 395.482,244.917 395.083 C 246.567 394.684,248.179 394.305,248.500 394.241 C 248.821 394.176,249.530 393.982,250.077 393.808 C 250.623 393.634,251.167 393.528,251.285 393.574 C 251.403 393.619,251.500 393.593,251.500 393.516 C 251.500 393.438,251.669 393.374,251.875 393.372 C 252.081 393.371,252.963 393.133,253.833 392.843 C 254.704 392.554,255.623 392.302,255.875 392.283 C 256.127 392.265,256.333 392.181,256.333 392.097 C 256.333 392.013,256.374 391.985,256.424 392.035 C 256.517 392.128,258.807 391.448,259.309 391.180 C 259.460 391.099,259.822 390.995,260.115 390.949 C 260.407 390.903,260.712 390.825,260.793 390.775 C 260.874 390.725,261.122 390.643,261.345 390.592 C 261.956 390.454,266.368 388.924,266.750 388.718 C 266.933 388.620,267.402 388.486,267.791 388.422 C 268.180 388.357,268.537 388.242,268.584 388.165 C 268.659 388.044,270.728 387.275,271.028 387.257 C 271.089 387.253,271.195 387.194,271.264 387.125 C 271.333 387.056,271.526 387.000,271.694 387.000 C 271.863 387.000,272.000 386.925,272.000 386.833 C 272.000 386.742,272.089 386.667,272.197 386.667 C 272.420 386.667,274.837 385.755,275.556 385.400 C 275.816 385.271,276.491 384.987,277.056 384.769 C 277.621 384.551,278.233 384.314,278.417 384.242 C 278.600 384.171,278.787 384.099,278.833 384.083 C 278.987 384.029,280.575 383.310,281.417 382.913 C 282.400 382.449,283.046 382.198,283.179 382.228 C 283.231 382.240,283.405 382.119,283.565 381.958 C 283.726 381.798,283.956 381.667,284.078 381.667 C 284.199 381.667,285.000 381.302,285.857 380.856 C 286.715 380.410,287.472 380.033,287.540 380.017 C 287.607 380.002,288.002 379.844,288.417 379.667 C 288.832 379.489,289.213 379.360,289.264 379.380 C 289.315 379.400,289.431 379.284,289.522 379.121 C 289.613 378.959,289.746 378.863,289.817 378.907 C 289.889 378.951,290.351 378.728,290.843 378.410 C 291.336 378.093,291.843 377.833,291.970 377.833 C 292.098 377.833,292.516 377.621,292.899 377.362 C 293.283 377.103,294.138 376.642,294.799 376.338 C 295.459 376.033,296.000 375.716,296.000 375.632 C 296.000 375.549,296.070 375.523,296.155 375.576 C 296.240 375.629,296.353 375.604,296.404 375.520 C 296.456 375.436,296.967 375.124,297.541 374.826 C 298.114 374.528,298.883 374.091,299.250 373.855 C 299.617 373.619,300.254 373.254,300.667 373.043 C 301.477 372.628,302.034 372.301,302.167 372.163 C 302.280 372.045,303.018 371.579,303.739 371.170 C 304.066 370.985,304.608 370.678,304.945 370.487 C 305.281 370.297,305.787 369.978,306.070 369.778 C 306.875 369.210,307.227 368.998,307.542 368.892 C 307.702 368.839,307.833 368.728,307.833 368.647 C 307.833 368.566,307.946 368.500,308.083 368.500 C 308.221 368.500,308.333 368.425,308.333 368.333 C 308.333 368.242,308.405 368.167,308.492 368.167 C 308.579 368.167,308.998 367.923,309.423 367.625 C 309.848 367.327,310.321 367.007,310.473 366.915 C 310.625 366.822,311.559 366.203,312.548 365.540 C 313.537 364.876,314.399 364.331,314.465 364.329 C 314.530 364.326,314.918 364.026,315.327 363.662 C 315.736 363.298,316.163 363.000,316.276 363.000 C 316.389 363.000,316.579 362.867,316.699 362.705 C 316.935 362.386,317.783 361.800,317.906 361.872 C 317.947 361.897,318.229 361.689,318.532 361.412 C 318.835 361.134,319.421 360.649,319.833 360.335 C 320.246 360.020,320.608 359.703,320.639 359.631 C 320.669 359.559,320.785 359.500,320.896 359.500 C 321.007 359.500,321.376 359.238,321.716 358.917 C 322.056 358.596,322.371 358.333,322.415 358.333 C 322.500 358.333,322.837 358.070,323.774 357.274 C 324.082 357.013,324.333 356.835,324.333 356.880 C 324.333 356.925,324.652 356.670,325.042 356.314 C 326.121 355.328,326.322 355.167,326.470 355.167 C 326.545 355.167,326.760 354.998,326.947 354.792 C 327.135 354.585,327.532 354.229,327.831 354.000 C 328.403 353.561,329.081 352.998,329.500 352.613 C 329.637 352.487,330.275 351.943,330.917 351.405 C 332.024 350.476,332.626 349.948,333.654 349.000 C 333.903 348.771,335.001 347.759,336.095 346.752 C 339.447 343.665,346.958 336.045,349.222 333.435 C 349.390 333.242,349.953 332.603,350.472 332.015 C 350.992 331.428,351.581 330.726,351.782 330.455 C 351.983 330.184,352.302 329.854,352.490 329.721 C 352.679 329.589,352.833 329.407,352.833 329.316 C 352.833 329.226,353.002 328.974,353.208 328.757 C 353.415 328.540,353.883 328.005,354.250 327.568 C 354.617 327.130,355.085 326.588,355.292 326.362 C 355.498 326.136,355.667 325.898,355.667 325.833 C 355.667 325.768,355.835 325.528,356.042 325.299 C 356.248 325.070,356.829 324.347,357.333 323.693 C 357.837 323.038,358.306 322.502,358.375 322.501 C 358.444 322.501,358.500 322.405,358.500 322.290 C 358.500 322.174,358.669 321.891,358.875 321.660 C 359.701 320.733,360.623 319.554,360.922 319.042 C 361.096 318.744,361.297 318.500,361.369 318.500 C 361.441 318.500,361.500 318.410,361.500 318.301 C 361.500 318.191,361.679 317.910,361.898 317.676 C 362.118 317.442,362.801 316.500,363.417 315.583 C 364.033 314.667,364.604 313.892,364.685 313.861 C 364.767 313.831,364.833 313.697,364.833 313.564 C 364.833 313.431,364.946 313.280,365.083 313.227 C 365.221 313.174,365.333 313.027,365.333 312.899 C 365.333 312.771,365.408 312.667,365.500 312.667 C 365.592 312.667,365.648 312.610,365.626 312.542 C 365.604 312.473,365.721 312.229,365.887 312.000 C 366.052 311.771,366.877 310.529,367.719 309.240 C 368.561 307.951,369.346 306.751,369.463 306.573 C 369.580 306.395,369.720 306.119,369.774 305.958 C 369.828 305.798,369.938 305.667,370.019 305.667 C 370.100 305.667,370.167 305.573,370.167 305.458 C 370.167 305.344,370.505 304.737,370.917 304.110 C 371.329 303.482,371.667 302.952,371.667 302.931 C 371.667 302.910,372.190 302.036,372.830 300.988 C 373.469 299.940,374.156 298.746,374.357 298.333 C 374.558 297.921,374.814 297.471,374.928 297.333 C 375.041 297.196,375.466 296.446,375.872 295.667 C 376.278 294.887,376.695 294.100,376.798 293.917 C 376.902 293.733,377.597 292.346,378.342 290.833 C 379.088 289.321,379.766 288.012,379.849 287.925 C 379.932 287.838,380.000 287.640,380.000 287.484 C 380.000 287.329,380.113 287.159,380.252 287.106 C 380.390 287.053,380.488 286.951,380.469 286.880 C 380.430 286.732,380.984 285.468,381.604 284.292 C 381.833 283.856,381.984 283.500,381.940 283.500 C 381.895 283.500,382.166 282.881,382.542 282.125 C 382.918 281.369,383.232 280.675,383.241 280.583 C 383.257 280.411,383.890 278.969,384.173 278.461 C 384.261 278.301,384.333 278.058,384.333 277.919 C 384.333 277.780,384.408 277.667,384.500 277.667 C 384.592 277.667,384.651 277.610,384.631 277.542 C 384.587 277.390,385.128 275.980,385.537 275.178 C 385.700 274.858,385.833 274.502,385.833 274.386 C 385.833 274.271,385.970 273.931,386.136 273.630 C 386.303 273.329,386.721 272.296,387.065 271.333 C 387.409 270.371,387.735 269.471,387.789 269.333 C 387.844 269.196,387.901 269.046,387.917 269.000 C 387.933 268.954,387.995 268.785,388.056 268.625 C 388.117 268.465,388.216 268.202,388.276 268.042 C 388.337 267.881,388.372 267.686,388.354 267.607 C 388.336 267.529,388.388 267.379,388.469 267.274 C 388.549 267.169,388.824 266.446,389.078 265.667 C 389.333 264.887,389.601 264.100,389.675 263.917 C 390.032 263.031,390.551 261.491,390.769 260.667 C 390.903 260.162,391.232 259.075,391.499 258.250 C 392.084 256.449,392.804 254.001,393.019 253.083 C 393.105 252.717,393.222 252.304,393.280 252.167 C 393.337 252.029,393.406 251.767,393.434 251.583 C 393.547 250.841,393.820 249.721,394.002 249.250 C 394.182 248.783,394.496 247.423,394.829 245.667 C 394.907 245.254,395.046 244.723,395.138 244.486 C 395.229 244.249,395.348 243.799,395.402 243.486 C 395.456 243.173,395.584 242.617,395.686 242.250 C 395.788 241.883,395.897 241.321,395.928 241.000 C 395.996 240.299,396.062 239.954,396.577 237.583 C 396.999 235.642,397.144 234.831,397.259 233.750 C 397.298 233.383,397.438 232.521,397.569 231.833 C 397.894 230.139,398.365 227.067,398.425 226.250 C 398.452 225.883,398.485 225.583,398.498 225.583 C 398.511 225.583,398.552 225.171,398.589 224.667 C 398.627 224.162,398.771 222.850,398.910 221.750 C 399.179 219.624,399.614 215.128,399.766 212.917 C 399.906 210.872,399.997 189.167,399.866 189.166 C 399.802 189.166,399.750 188.604,399.750 187.917 C 399.750 187.230,399.701 186.667,399.641 186.667 C 399.580 186.667,399.571 186.513,399.620 186.325 C 399.719 185.947,399.486 183.264,398.968 178.833 C 398.780 177.229,398.612 175.599,398.594 175.212 C 398.577 174.824,398.516 174.460,398.459 174.404 C 398.403 174.347,398.393 174.204,398.439 174.086 C 398.484 173.967,398.443 173.431,398.347 172.894 C 398.251 172.356,398.130 171.617,398.079 171.250 C 398.027 170.883,397.870 169.908,397.730 169.083 C 397.589 168.258,397.373 166.871,397.250 166.000 C 397.126 165.129,396.988 164.257,396.943 164.062 C 396.707 163.045,396.180 160.509,396.099 160.000 C 396.048 159.679,395.968 159.229,395.921 159.000 C 395.874 158.771,395.763 158.208,395.675 157.750 C 395.587 157.292,395.400 156.504,395.259 156.000 C 395.119 155.496,394.816 154.215,394.585 153.155 C 394.355 152.094,393.981 150.607,393.755 149.849 C 393.528 149.092,393.349 148.422,393.358 148.361 C 393.366 148.300,393.358 148.212,393.341 148.167 C 393.323 148.121,393.275 147.896,393.235 147.667 C 393.194 147.438,393.035 146.875,392.881 146.417 C 392.544 145.412,392.570 145.507,392.250 144.167 C 392.108 143.571,391.923 142.933,391.841 142.750 C 391.637 142.298,390.843 139.815,390.754 139.354 C 390.715 139.149,390.448 138.330,390.161 137.533 C 389.874 136.735,389.611 135.933,389.577 135.750 C 389.471 135.189,388.673 132.959,388.507 132.758 C 388.421 132.655,388.305 132.314,388.250 132.001 C 388.195 131.688,388.035 131.166,387.894 130.841 C 387.754 130.516,387.533 130.004,387.403 129.703 C 387.273 129.402,387.167 129.059,387.167 128.940 C 387.167 128.822,386.904 128.120,386.583 127.379 C 386.262 126.639,386.000 125.921,386.000 125.784 C 386.000 125.648,385.883 125.491,385.739 125.436 C 385.596 125.381,385.521 125.267,385.573 125.184 C 385.624 125.100,385.523 124.743,385.348 124.391 C 385.173 124.038,384.867 123.300,384.667 122.750 C 384.468 122.200,384.199 121.551,384.069 121.308 C 383.939 121.064,383.833 120.778,383.833 120.671 C 383.833 120.564,383.721 120.364,383.583 120.226 C 383.446 120.089,383.333 119.842,383.333 119.678 C 383.333 119.514,383.108 118.959,382.833 118.443 C 382.558 117.928,382.333 117.392,382.333 117.253 C 382.333 117.114,382.258 117.000,382.167 117.000 C 382.075 117.000,382.017 116.944,382.038 116.875 C 382.059 116.806,381.764 116.108,381.382 115.323 C 381.000 114.539,380.664 113.789,380.636 113.657 C 380.607 113.525,380.541 113.379,380.488 113.333 C 380.298 113.167,377.999 108.500,378.107 108.500 C 378.168 108.500,378.103 108.369,377.962 108.208 C 377.742 107.958,376.969 106.578,376.912 106.333 C 376.873 106.164,376.421 105.247,376.337 105.167 C 376.180 105.016,375.152 103.146,374.460 101.750 C 374.187 101.200,373.916 100.712,373.857 100.667 C 373.577 100.448,372.975 99.449,372.954 99.166 C 372.941 98.991,372.899 98.879,372.861 98.917 C 372.796 98.982,372.000 97.900,372.000 97.746 C 372.000 97.705,371.700 97.182,371.333 96.583 C 370.967 95.984,370.667 95.420,370.667 95.330 C 370.667 95.240,370.579 95.167,370.472 95.167 C 370.365 95.167,370.322 95.123,370.375 95.069 C 370.429 95.016,370.350 94.828,370.199 94.652 C 370.049 94.477,369.736 93.976,369.504 93.541 C 369.273 93.105,368.877 92.479,368.625 92.150 C 368.373 91.821,368.167 91.471,368.167 91.373 C 368.167 91.275,368.110 91.169,368.042 91.139 C 367.860 91.058,366.500 89.019,366.500 88.828 C 366.500 88.739,366.425 88.667,366.333 88.667 C 366.242 88.667,366.167 88.580,366.167 88.474 C 366.167 88.368,365.979 88.036,365.750 87.735 C 365.521 87.435,365.333 87.109,365.333 87.011 C 365.333 86.913,365.269 86.833,365.190 86.833 C 365.111 86.833,364.743 86.365,364.372 85.792 C 363.776 84.872,363.522 84.529,362.836 83.715 C 362.743 83.605,362.667 83.470,362.667 83.417 C 362.667 83.296,361.980 82.313,361.736 82.085 C 361.471 81.837,360.333 80.223,360.333 80.095 C 360.333 80.034,360.165 79.812,359.958 79.601 C 359.589 79.222,359.239 78.789,358.583 77.900 C 357.957 77.051,354.793 73.084,354.521 72.807 C 354.372 72.655,354.100 72.332,353.917 72.088 C 353.733 71.845,353.415 71.487,353.208 71.293 C 353.002 71.099,352.833 70.839,352.833 70.715 C 352.833 70.591,352.724 70.447,352.590 70.396 C 352.456 70.345,351.939 69.803,351.442 69.193 C 350.945 68.583,350.118 67.636,349.604 67.089 C 349.091 66.542,348.651 66.040,348.627 65.973 C 348.531 65.706,344.876 61.890,341.316 58.340 C 336.853 53.890,334.809 51.977,331.336 49.000 C 330.748 48.496,330.075 47.897,329.842 47.669 C 329.608 47.441,329.372 47.254,329.317 47.253 C 329.222 47.250,328.713 46.817,327.938 46.079 C 327.366 45.534,325.879 44.333,325.776 44.333 C 325.724 44.333,325.503 44.165,325.284 43.958 C 324.764 43.468,322.895 41.993,322.346 41.640 C 322.110 41.488,321.720 41.188,321.479 40.974 C 321.238 40.759,320.652 40.283,320.176 39.917 C 319.701 39.550,319.063 39.044,318.759 38.792 C 318.455 38.540,318.151 38.333,318.084 38.333 C 317.925 38.333,316.267 37.129,316.194 36.961 C 316.164 36.891,316.065 36.833,315.974 36.833 C 315.884 36.833,315.705 36.740,315.577 36.625 C 315.166 36.256,314.967 36.117,311.700 33.917 C 308.044 31.454,308.033 31.447,306.743 30.695 C 306.219 30.389,305.636 29.996,305.447 29.820 C 305.258 29.644,305.035 29.500,304.951 29.500 C 304.867 29.500,304.465 29.275,304.057 29.000 C 303.650 28.725,303.283 28.500,303.243 28.500 C 303.202 28.500,302.109 27.862,300.814 27.083 C 299.519 26.304,298.394 25.667,298.313 25.667 C 298.233 25.667,298.167 25.607,298.167 25.533 C 298.167 25.460,297.904 25.305,297.583 25.189 C 297.262 25.073,297.000 24.914,297.000 24.836 C 297.000 24.757,296.775 24.644,296.500 24.583 C 296.225 24.523,296.000 24.423,296.000 24.361 C 296.000 24.260,295.097 23.769,294.000 23.272 C 293.771 23.168,293.145 22.840,292.609 22.542 C 292.073 22.244,291.529 22.000,291.401 22.000 C 291.272 22.000,291.167 21.913,291.167 21.806 C 291.167 21.699,291.124 21.654,291.071 21.706 C 291.019 21.759,290.524 21.546,289.972 21.234 C 289.420 20.922,288.906 20.667,288.831 20.667 C 288.624 20.667,287.601 20.107,287.461 19.917 C 287.394 19.825,287.337 19.804,287.336 19.870 C 287.334 19.936,286.889 19.729,286.347 19.411 C 285.804 19.093,285.279 18.833,285.180 18.833 C 285.081 18.833,284.644 18.646,284.208 18.417 C 283.409 17.997,281.487 17.103,281.333 17.080 C 280.977 17.026,280.500 16.783,280.500 16.655 C 280.500 16.570,280.397 16.500,280.270 16.500 C 280.144 16.500,279.769 16.387,279.438 16.248 C 279.106 16.110,278.816 16.012,278.792 16.032 C 278.769 16.052,278.525 15.941,278.250 15.785 C 277.765 15.511,276.924 15.154,276.583 15.078 C 276.492 15.058,276.079 14.893,275.667 14.711 C 274.329 14.123,272.021 13.167,271.937 13.167 C 271.892 13.167,271.644 13.079,271.386 12.972 C 271.128 12.865,270.879 12.765,270.833 12.750 C 270.635 12.682,270.041 12.455,269.500 12.240 C 268.281 11.755,265.500 10.855,265.500 10.946 C 265.500 10.998,265.380 10.941,265.233 10.819 C 265.086 10.698,264.880 10.581,264.775 10.561 C 264.670 10.540,263.571 10.188,262.333 9.777 C 260.316 9.108,257.355 8.172,256.917 8.064 C 256.825 8.041,256.375 7.916,255.917 7.785 C 255.458 7.655,254.596 7.416,254.000 7.255 C 253.404 7.093,252.804 6.918,252.667 6.865 C 252.529 6.812,252.342 6.758,252.250 6.743 C 252.158 6.729,251.971 6.674,251.833 6.621 C 251.696 6.568,251.358 6.486,251.083 6.440 C 250.808 6.393,249.908 6.162,249.083 5.926 C 248.258 5.690,247.358 5.464,247.083 5.424 C 246.382 5.320,246.018 5.234,245.030 4.941 C 244.555 4.800,244.167 4.721,244.167 4.765 C 244.167 4.809,244.027 4.770,243.856 4.679 C 243.577 4.529,243.088 4.429,241.833 4.266 C 241.604 4.236,241.304 4.174,241.167 4.129 C 240.870 4.030,236.244 3.119,235.854 3.082 C 235.705 3.068,235.358 3.006,235.083 2.945 C 234.808 2.884,234.283 2.797,233.917 2.752 C 233.550 2.708,232.650 2.562,231.917 2.429 C 231.183 2.295,230.321 2.150,230.000 2.105 C 229.679 2.060,229.042 1.968,228.583 1.901 C 228.125 1.833,227.600 1.759,227.417 1.736 C 227.233 1.713,227.083 1.679,227.083 1.660 C 227.083 1.642,226.708 1.604,226.250 1.576 C 225.792 1.549,224.442 1.407,223.250 1.262 C 218.075 0.629,214.266 0.294,211.875 0.260 C 211.485 0.254,211.167 0.206,211.167 0.151 C 211.167 0.039,190.779 -0.054,190.660 0.057 M208.833 21.766 C 210.071 21.824,211.125 21.939,211.177 22.020 C 211.228 22.101,211.678 22.161,212.177 22.154 C 213.475 22.134,214.209 22.171,216.000 22.345 C 216.871 22.429,218.108 22.541,218.750 22.592 C 219.392 22.643,220.179 22.718,220.500 22.758 C 220.821 22.797,221.458 22.874,221.917 22.927 C 222.924 23.044,226.854 23.631,227.667 23.785 C 227.987 23.846,228.438 23.908,228.667 23.923 C 228.896 23.937,229.383 24.026,229.750 24.119 C 230.117 24.212,230.642 24.298,230.917 24.312 C 231.192 24.325,231.642 24.405,231.917 24.490 C 232.192 24.575,232.717 24.686,233.083 24.736 C 233.450 24.787,234.425 24.978,235.250 25.161 C 236.075 25.343,236.975 25.527,237.250 25.569 C 237.939 25.675,240.583 26.280,240.583 26.333 C 240.583 26.347,240.753 26.390,240.961 26.428 C 242.510 26.717,247.198 27.977,249.417 28.700 C 250.242 28.970,251.254 29.253,251.667 29.330 C 252.079 29.408,252.773 29.625,253.208 29.813 C 253.644 30.001,254.000 30.111,254.000 30.057 C 254.000 30.003,254.124 30.062,254.276 30.188 C 254.427 30.314,254.579 30.390,254.614 30.358 C 254.729 30.251,256.167 30.737,256.167 30.884 C 256.167 30.963,256.260 30.996,256.375 30.958 C 256.490 30.920,256.975 31.026,257.454 31.194 C 257.933 31.362,258.403 31.500,258.498 31.500 C 258.593 31.500,258.988 31.641,259.377 31.813 C 259.765 31.986,260.721 32.369,261.500 32.665 C 264.822 33.926,267.587 35.066,267.639 35.195 C 267.669 35.271,267.837 35.333,268.011 35.333 C 268.185 35.333,268.798 35.564,269.372 35.846 C 269.947 36.127,270.566 36.389,270.749 36.427 C 271.208 36.523,272.500 37.222,272.500 37.375 C 272.500 37.444,272.641 37.500,272.813 37.500 C 273.250 37.500,275.615 38.579,278.417 40.057 C 278.692 40.202,279.367 40.539,279.917 40.805 C 281.259 41.455,283.207 42.493,283.432 42.680 C 283.532 42.763,283.662 42.783,283.720 42.725 C 283.778 42.667,283.873 42.742,283.931 42.893 C 283.988 43.043,284.159 43.172,284.309 43.178 C 284.460 43.184,284.931 43.390,285.356 43.636 C 285.781 43.882,286.719 44.413,287.439 44.816 C 288.160 45.219,288.787 45.594,288.833 45.649 C 288.934 45.771,289.162 45.910,291.083 47.026 C 291.908 47.506,292.609 47.960,292.640 48.036 C 292.672 48.113,292.934 48.288,293.224 48.427 C 294.264 48.924,294.667 49.188,294.667 49.370 C 294.667 49.472,294.714 49.508,294.773 49.449 C 294.875 49.347,295.677 49.840,296.137 50.286 C 296.258 50.404,296.464 50.500,296.595 50.500 C 296.726 50.500,296.815 50.594,296.792 50.708 C 296.769 50.823,296.846 50.897,296.964 50.873 C 297.081 50.849,297.268 50.908,297.380 51.003 C 297.492 51.098,297.958 51.415,298.417 51.709 C 298.875 52.002,299.355 52.344,299.484 52.468 C 299.613 52.593,299.899 52.763,300.119 52.847 C 300.361 52.939,300.473 53.076,300.401 53.192 C 300.329 53.309,300.355 53.340,300.466 53.271 C 300.568 53.208,300.786 53.267,300.951 53.402 C 301.878 54.164,303.322 55.167,303.491 55.167 C 303.598 55.167,303.640 55.242,303.583 55.333 C 303.527 55.425,303.568 55.500,303.674 55.500 C 303.781 55.500,304.082 55.669,304.343 55.875 C 304.604 56.081,305.171 56.512,305.603 56.833 C 306.035 57.154,306.553 57.585,306.755 57.792 C 306.957 57.998,307.204 58.167,307.305 58.167 C 307.406 58.167,307.569 58.317,307.667 58.500 C 307.765 58.683,307.955 58.833,308.089 58.833 C 308.223 58.833,308.333 58.908,308.333 59.000 C 308.333 59.092,308.427 59.167,308.542 59.167 C 308.656 59.167,309.025 59.411,309.362 59.708 C 309.699 60.006,310.214 60.438,310.508 60.667 C 310.801 60.896,311.313 61.343,311.646 61.660 C 311.978 61.977,312.335 62.220,312.439 62.199 C 312.617 62.163,312.866 62.545,312.906 62.917 C 312.916 63.008,313.055 63.061,313.214 63.034 C 313.374 63.007,313.547 63.094,313.598 63.228 C 313.650 63.362,313.967 63.657,314.304 63.883 C 314.641 64.109,315.254 64.610,315.667 64.997 C 316.079 65.384,316.604 65.848,316.833 66.029 C 317.428 66.497,319.765 68.664,321.564 70.417 C 322.411 71.242,323.587 72.378,324.177 72.941 C 324.767 73.505,326.075 74.848,327.083 75.927 C 328.092 77.005,329.217 78.200,329.583 78.582 C 330.628 79.671,332.904 82.216,333.417 82.868 C 333.600 83.102,334.197 83.794,334.744 84.407 C 335.290 85.019,336.115 86.030,336.577 86.652 C 337.300 87.626,338.098 88.621,339.508 90.306 C 339.687 90.520,339.833 90.764,339.833 90.847 C 339.833 90.931,339.899 91.000,339.980 91.000 C 340.061 91.000,340.492 91.525,340.938 92.167 C 341.832 93.452,342.117 93.851,343.042 95.110 C 343.385 95.578,343.667 96.045,343.667 96.147 C 343.667 96.250,343.744 96.333,343.837 96.333 C 343.931 96.333,344.080 96.521,344.167 96.750 C 344.254 96.979,344.402 97.167,344.496 97.167 C 344.590 97.167,344.667 97.256,344.667 97.364 C 344.667 97.473,344.807 97.717,344.979 97.906 C 345.333 98.296,348.333 102.746,348.333 102.881 C 348.333 102.929,348.671 103.482,349.083 104.110 C 349.495 104.737,349.833 105.381,349.833 105.542 C 349.833 105.702,349.943 105.833,350.078 105.833 C 350.227 105.833,350.285 105.931,350.227 106.083 C 350.174 106.221,350.208 106.333,350.303 106.333 C 350.452 106.333,351.948 108.620,352.022 108.960 C 352.036 109.028,352.241 109.383,352.477 109.750 C 353.186 110.852,353.487 111.458,353.379 111.565 C 353.324 111.621,353.378 111.667,353.500 111.667 C 353.622 111.667,353.677 111.712,353.621 111.768 C 353.527 111.862,353.617 112.007,354.109 112.561 C 354.214 112.679,354.558 113.296,354.873 113.930 C 355.189 114.564,356.340 116.852,357.432 119.013 C 358.523 121.174,359.543 123.237,359.697 123.596 C 359.962 124.214,360.909 126.323,361.412 127.417 C 361.539 127.692,361.766 128.217,361.917 128.583 C 362.068 128.950,362.289 129.475,362.408 129.750 C 362.527 130.025,362.755 130.587,362.914 131.000 C 363.073 131.412,363.314 131.960,363.449 132.217 C 363.585 132.474,363.654 132.793,363.603 132.925 C 363.552 133.058,363.574 133.167,363.652 133.167 C 363.802 133.167,364.604 135.164,364.539 135.375 C 364.517 135.444,364.565 135.500,364.645 135.500 C 364.725 135.500,364.886 135.856,365.004 136.292 C 365.122 136.727,365.261 137.158,365.314 137.250 C 365.539 137.643,365.967 139.085,365.894 139.204 C 365.850 139.275,365.881 139.333,365.964 139.333 C 366.101 139.333,366.562 140.523,366.577 140.917 C 366.580 141.008,366.678 141.183,366.793 141.305 C 366.909 141.427,366.964 141.591,366.915 141.669 C 366.867 141.747,366.904 141.857,366.997 141.915 C 367.090 141.973,367.167 142.166,367.167 142.345 C 367.167 142.525,367.234 142.801,367.316 142.961 C 367.452 143.226,368.364 146.021,368.442 146.414 C 368.533 146.869,369.215 149.252,369.647 150.625 C 369.960 151.618,370.065 152.168,369.941 152.169 C 369.824 152.171,369.837 152.227,369.977 152.316 C 370.102 152.395,370.264 152.750,370.338 153.105 C 370.411 153.460,370.510 153.900,370.556 154.083 C 370.603 154.267,370.765 154.904,370.917 155.500 C 371.069 156.096,371.230 156.771,371.276 157.000 C 371.322 157.229,371.547 158.204,371.778 159.167 C 372.008 160.129,372.223 161.067,372.256 161.250 C 372.537 162.811,372.904 164.783,373.094 165.750 C 373.221 166.392,373.407 167.479,373.509 168.167 C 373.610 168.854,373.836 170.242,374.012 171.250 C 374.187 172.258,374.406 173.796,374.500 174.667 C 374.593 175.537,374.705 176.438,374.749 176.667 C 374.873 177.315,375.354 182.660,375.316 182.972 C 375.297 183.125,375.339 183.380,375.408 183.539 C 375.477 183.699,375.507 184.167,375.474 184.581 C 375.441 184.994,375.471 185.351,375.540 185.375 C 376.002 185.529,375.903 206.642,375.417 211.694 C 375.273 213.191,375.082 215.204,374.993 216.167 C 374.807 218.185,374.350 221.966,374.249 222.333 C 374.086 222.921,373.877 224.327,373.796 225.375 C 373.777 225.627,373.698 225.833,373.620 225.833 C 373.543 225.833,373.527 225.909,373.585 226.002 C 373.642 226.095,373.608 226.564,373.509 227.044 C 373.409 227.524,373.291 228.217,373.246 228.583 C 373.153 229.343,372.710 231.504,372.495 232.250 C 372.415 232.525,372.313 233.088,372.267 233.500 C 372.222 233.912,372.064 234.662,371.918 235.167 C 371.771 235.671,371.629 236.233,371.602 236.417 C 371.542 236.827,371.299 237.886,370.740 240.167 C 370.504 241.129,370.284 242.067,370.253 242.250 C 370.221 242.433,370.183 242.583,370.168 242.583 C 370.154 242.583,370.109 242.764,370.068 242.984 C 370.027 243.205,369.878 243.785,369.736 244.273 C 369.594 244.761,369.482 245.199,369.486 245.246 C 369.490 245.293,369.314 245.838,369.095 246.457 C 368.876 247.077,368.638 247.846,368.566 248.167 C 368.494 248.487,368.427 248.787,368.417 248.833 C 368.237 249.624,367.738 250.794,367.613 250.717 C 367.518 250.658,367.501 250.701,367.573 250.816 C 367.699 251.020,367.477 251.774,366.321 255.083 C 364.975 258.935,364.359 260.600,364.102 261.083 C 363.955 261.358,363.835 261.638,363.834 261.705 C 363.833 261.863,362.406 265.498,361.919 266.583 C 361.714 267.042,361.493 267.585,361.428 267.792 C 361.364 267.998,361.228 268.167,361.128 268.167 C 361.027 268.167,360.991 268.213,361.048 268.270 C 361.105 268.327,360.967 268.739,360.740 269.186 C 360.514 269.632,360.331 270.037,360.334 270.084 C 360.338 270.131,360.211 270.413,360.054 270.710 C 359.897 271.007,359.753 271.337,359.734 271.443 C 359.675 271.784,357.793 275.573,357.533 275.875 C 357.395 276.035,357.326 276.167,357.379 276.167 C 357.433 276.167,357.078 276.935,356.591 277.875 C 356.104 278.815,355.415 280.146,355.061 280.833 C 354.707 281.521,354.342 282.137,354.250 282.202 C 354.158 282.268,354.081 282.380,354.079 282.452 C 354.077 282.524,353.954 282.771,353.807 283.000 C 353.659 283.229,353.436 283.613,353.311 283.853 C 352.646 285.127,352.272 285.761,352.130 285.852 C 352.043 285.908,351.971 286.000,351.971 286.056 C 351.970 286.365,351.775 286.833,351.647 286.833 C 351.566 286.833,351.500 286.928,351.500 287.043 C 351.500 287.159,351.163 287.757,350.750 288.372 C 350.337 288.986,350.000 289.524,350.000 289.567 C 350.000 289.697,346.848 294.542,346.358 295.167 C 346.106 295.487,345.772 296.025,345.615 296.362 C 345.458 296.698,345.275 296.998,345.207 297.028 C 345.018 297.112,344.333 298.130,344.333 298.327 C 344.333 298.422,344.271 298.500,344.195 298.500 C 344.119 298.500,343.957 298.685,343.836 298.911 C 343.715 299.137,343.553 299.283,343.475 299.234 C 343.397 299.186,343.333 299.288,343.333 299.460 C 343.333 299.632,343.108 300.025,342.833 300.333 C 342.558 300.641,342.333 300.959,342.333 301.040 C 342.333 301.120,342.247 301.133,342.141 301.067 C 342.035 301.002,341.992 301.019,342.046 301.106 C 342.100 301.193,341.776 301.748,341.326 302.340 C 340.876 302.932,340.215 303.829,339.857 304.333 C 339.499 304.837,339.009 305.460,338.769 305.717 C 338.530 305.974,338.333 306.249,338.333 306.328 C 338.333 306.407,338.276 306.497,338.205 306.528 C 338.135 306.558,337.780 306.958,337.417 307.417 C 337.054 307.875,336.587 308.429,336.379 308.648 C 336.170 308.866,336.000 309.152,336.000 309.283 C 336.000 309.413,335.925 309.473,335.833 309.417 C 335.742 309.360,335.667 309.391,335.667 309.484 C 335.667 309.578,335.442 309.885,335.167 310.167 C 334.892 310.448,334.667 310.728,334.667 310.789 C 334.667 310.849,334.442 311.128,334.166 311.408 C 333.891 311.688,333.227 312.442,332.691 313.083 C 332.154 313.725,331.404 314.578,331.024 314.979 C 330.644 315.380,330.333 315.732,330.333 315.762 C 330.333 315.907,320.414 326.000,320.272 326.000 C 320.231 326.000,319.863 326.319,319.453 326.708 C 319.044 327.098,318.306 327.777,317.813 328.218 C 317.320 328.658,316.614 329.295,316.244 329.634 C 315.131 330.654,313.824 331.746,313.639 331.811 C 313.544 331.845,313.215 332.107,312.909 332.395 C 311.667 333.561,311.444 333.750,311.311 333.750 C 311.235 333.750,311.055 333.919,310.910 334.126 C 310.765 334.333,310.407 334.625,310.115 334.775 C 309.823 334.925,309.345 335.300,309.053 335.607 C 308.761 335.915,308.479 336.167,308.426 336.167 C 308.372 336.167,307.898 336.505,307.373 336.918 C 305.709 338.227,305.602 338.309,304.667 338.992 C 304.162 339.360,303.600 339.779,303.417 339.921 C 302.768 340.427,302.572 340.562,299.750 342.462 C 299.108 342.894,298.528 343.323,298.461 343.415 C 298.394 343.508,298.337 343.522,298.336 343.446 C 298.334 343.371,298.223 343.420,298.088 343.555 C 297.953 343.690,297.559 343.974,297.213 344.187 C 296.867 344.399,296.439 344.706,296.262 344.868 C 296.086 345.030,295.804 345.206,295.637 345.259 C 295.470 345.312,295.333 345.417,295.333 345.492 C 295.333 345.626,294.700 345.886,294.458 345.851 C 294.390 345.841,294.333 345.921,294.333 346.028 C 294.333 346.135,294.288 346.177,294.233 346.121 C 294.177 346.066,293.962 346.203,293.755 346.427 C 293.548 346.650,293.267 346.833,293.132 346.833 C 292.996 346.833,292.749 346.983,292.583 347.167 C 292.417 347.350,292.222 347.500,292.149 347.500 C 292.076 347.500,291.694 347.706,291.300 347.958 C 290.163 348.686,289.970 348.801,289.000 349.338 C 288.496 349.617,287.333 350.295,286.417 350.844 C 285.500 351.394,284.469 351.965,284.125 352.114 C 283.781 352.262,283.500 352.448,283.500 352.525 C 283.500 352.603,283.420 352.667,283.323 352.667 C 283.029 352.667,281.262 353.506,281.083 353.731 C 280.992 353.846,280.467 354.148,279.917 354.403 C 279.367 354.657,278.317 355.156,277.583 355.512 C 276.850 355.869,275.575 356.470,274.750 356.848 C 273.925 357.226,272.725 357.784,272.083 358.087 C 270.610 358.783,268.496 359.695,268.262 359.736 C 268.164 359.753,267.821 359.886,267.500 360.031 C 267.179 360.176,266.467 360.466,265.917 360.675 C 265.367 360.884,264.692 361.170,264.417 361.310 C 263.853 361.599,262.655 362.050,261.417 362.439 C 260.958 362.583,260.508 362.758,260.417 362.828 C 260.120 363.055,256.794 364.162,256.659 364.079 C 256.587 364.034,256.502 364.077,256.470 364.173 C 256.438 364.269,256.244 364.361,256.039 364.376 C 255.834 364.392,255.667 364.463,255.667 364.535 C 255.667 364.608,255.528 364.667,255.359 364.667 C 255.190 364.667,254.609 364.824,254.068 365.017 C 253.526 365.210,252.915 365.368,252.708 365.368 C 252.502 365.368,252.333 365.430,252.333 365.506 C 252.333 365.581,251.902 365.762,251.375 365.908 C 250.848 366.054,250.025 366.291,249.546 366.434 C 249.067 366.578,248.580 366.715,248.463 366.739 C 248.346 366.763,248.137 366.828,248.000 366.882 C 247.862 366.936,247.262 367.101,246.667 367.249 C 246.071 367.396,245.343 367.591,245.049 367.683 C 244.755 367.775,244.352 367.881,244.153 367.919 C 243.415 368.061,240.889 368.679,240.078 368.916 C 239.617 369.051,238.117 369.383,236.745 369.654 C 235.373 369.925,233.762 370.259,233.167 370.396 C 232.571 370.533,231.746 370.687,231.333 370.738 C 230.921 370.789,230.396 370.868,230.167 370.914 C 229.938 370.960,229.487 371.036,229.167 371.082 C 228.846 371.129,228.490 371.202,228.375 371.245 C 228.260 371.288,228.167 371.245,228.167 371.150 C 228.167 371.054,228.061 371.081,227.933 371.210 C 227.798 371.345,227.411 371.433,227.016 371.418 C 226.641 371.404,226.333 371.442,226.333 371.502 C 226.333 371.562,226.090 371.619,225.792 371.628 C 225.494 371.637,224.537 371.757,223.667 371.895 C 221.774 372.195,221.074 372.290,219.750 372.423 C 219.200 372.478,218.619 372.561,218.458 372.606 C 218.298 372.652,218.167 372.600,218.167 372.491 C 218.167 372.352,218.104 372.344,217.958 372.464 C 216.426 373.727,182.810 373.697,181.961 372.432 C 181.877 372.308,181.838 372.317,181.836 372.462 C 181.834 372.605,181.686 372.641,181.375 372.574 C 181.123 372.519,180.692 372.452,180.417 372.425 C 180.142 372.398,179.354 372.320,178.667 372.252 C 177.979 372.184,177.267 372.095,177.083 372.055 C 176.900 372.014,176.487 371.949,176.167 371.910 C 175.846 371.871,175.396 371.795,175.167 371.741 C 174.938 371.687,174.525 371.619,174.250 371.590 C 173.975 371.561,173.750 371.526,173.750 371.511 C 173.750 371.497,173.377 371.458,172.922 371.426 C 172.467 371.393,172.064 371.275,172.027 371.164 C 171.984 371.035,171.922 371.023,171.854 371.133 C 171.784 371.246,171.495 371.251,170.999 371.149 C 170.055 370.955,169.780 370.907,168.750 370.753 C 168.292 370.685,167.429 370.518,166.833 370.382 C 165.165 370.003,165.121 369.994,164.500 369.909 C 163.756 369.807,160.906 369.199,160.250 369.002 C 159.702 368.838,157.779 368.362,157.250 368.260 C 157.067 368.225,156.718 368.119,156.475 368.025 C 156.233 367.931,156.003 367.886,155.964 367.925 C 155.925 367.964,155.469 367.847,154.951 367.665 C 154.432 367.482,153.907 367.333,153.783 367.333 C 153.372 367.333,146.807 365.394,145.500 364.886 C 145.362 364.833,145.069 364.766,144.848 364.737 C 144.628 364.707,144.403 364.624,144.348 364.550 C 144.294 364.477,144.137 364.396,144.000 364.370 C 143.674 364.309,141.181 363.501,140.750 363.316 C 140.195 363.079,139.427 362.785,139.250 362.742 C 138.987 362.679,136.890 361.874,136.205 361.572 C 135.082 361.079,134.428 360.835,134.000 360.750 C 133.954 360.741,133.577 360.574,133.161 360.379 C 132.745 360.184,132.201 359.973,131.953 359.911 C 131.704 359.848,131.500 359.730,131.500 359.649 C 131.500 359.567,131.390 359.500,131.255 359.500 C 130.926 359.500,129.098 358.662,129.028 358.479 C 128.997 358.399,128.829 358.333,128.653 358.333 C 128.477 358.333,127.977 358.152,127.542 357.930 C 127.106 357.708,126.563 357.450,126.333 357.357 C 125.367 356.964,121.923 355.314,121.840 355.203 C 121.701 355.018,121.027 354.667,120.810 354.667 C 120.451 354.667,118.817 353.818,118.728 353.585 C 118.679 353.458,118.533 353.395,118.403 353.445 C 118.273 353.495,118.167 353.453,118.167 353.351 C 118.167 353.250,118.054 353.167,117.917 353.167 C 117.779 353.167,117.667 353.087,117.667 352.990 C 117.667 352.893,117.610 352.848,117.542 352.890 C 117.473 352.932,117.177 352.843,116.884 352.691 C 116.592 352.540,115.992 352.234,115.551 352.011 C 115.111 351.789,114.712 351.559,114.667 351.501 C 114.621 351.443,113.917 351.025,113.102 350.573 C 110.658 349.216,110.465 349.102,109.203 348.285 C 108.536 347.853,107.917 347.500,107.828 347.500 C 107.739 347.500,107.667 347.425,107.667 347.333 C 107.667 347.242,107.554 347.167,107.417 347.167 C 107.279 347.167,107.167 347.092,107.167 347.000 C 107.167 346.908,107.097 346.833,107.012 346.833 C 106.926 346.833,106.586 346.665,106.255 346.458 C 103.221 344.567,102.314 343.977,102.030 343.708 C 101.909 343.594,101.759 343.500,101.696 343.500 C 101.634 343.500,101.365 343.312,101.099 343.083 C 100.833 342.854,100.514 342.667,100.391 342.667 C 100.268 342.667,100.167 342.592,100.167 342.500 C 100.167 342.408,100.091 342.333,99.998 342.333 C 99.905 342.333,99.422 342.015,98.925 341.625 C 98.429 341.235,97.533 340.579,96.935 340.167 C 96.337 339.754,95.844 339.356,95.840 339.282 C 95.837 339.208,95.761 339.192,95.672 339.247 C 95.583 339.301,95.415 339.193,95.299 339.006 C 95.182 338.820,94.998 338.667,94.890 338.667 C 94.783 338.667,94.669 338.606,94.639 338.531 C 94.608 338.457,94.133 338.070,93.583 337.671 C 93.033 337.273,92.450 336.810,92.287 336.642 C 92.124 336.474,91.771 336.224,91.503 336.085 C 91.236 335.947,90.957 335.737,90.883 335.619 C 90.810 335.502,90.356 335.120,89.875 334.772 C 89.394 334.423,89.000 334.075,89.000 333.997 C 89.000 333.919,88.859 333.811,88.686 333.756 C 88.513 333.701,88.155 333.453,87.890 333.203 C 87.625 332.954,86.853 332.300,86.175 331.750 C 85.496 331.200,84.658 330.487,84.312 330.167 C 83.966 329.846,83.256 329.208,82.735 328.750 C 81.719 327.857,79.714 325.988,78.174 324.500 C 77.653 323.996,77.044 323.428,76.821 323.238 C 76.270 322.767,71.449 317.756,70.417 316.581 C 69.540 315.582,68.924 314.903,67.774 313.667 C 66.782 312.600,64.462 309.817,63.820 308.923 C 63.521 308.507,63.215 308.167,63.138 308.167 C 63.062 308.167,63.000 308.101,63.000 308.021 C 63.000 307.940,62.700 307.556,62.333 307.167 C 61.711 306.506,61.591 306.291,61.651 305.946 C 61.664 305.870,61.610 305.849,61.531 305.898 C 61.452 305.946,61.169 305.691,60.902 305.330 C 60.635 304.970,60.360 304.673,60.292 304.671 C 60.223 304.668,60.167 304.585,60.167 304.485 C 60.167 304.385,59.820 303.897,59.396 303.402 C 58.973 302.906,58.684 302.500,58.755 302.500 C 58.826 302.500,58.723 302.360,58.526 302.189 C 58.328 302.018,58.167 301.799,58.167 301.703 C 58.167 301.606,58.105 301.503,58.029 301.472 C 57.836 301.394,55.167 297.548,55.167 297.348 C 55.167 297.257,55.072 297.123,54.956 297.050 C 54.840 296.977,54.446 296.468,54.081 295.920 C 53.716 295.371,53.356 294.846,53.281 294.753 C 53.012 294.418,50.500 290.489,50.500 290.404 C 50.500 290.356,50.195 289.857,49.821 289.295 C 49.448 288.734,48.918 287.856,48.644 287.345 C 48.369 286.835,48.001 286.173,47.826 285.875 C 47.650 285.577,47.557 285.333,47.618 285.333 C 47.679 285.333,47.565 285.180,47.364 284.993 C 46.926 284.585,46.139 283.084,46.285 282.937 C 46.342 282.880,46.309 282.833,46.210 282.833 C 45.966 282.833,45.125 281.369,45.251 281.164 C 45.307 281.074,45.271 281.000,45.171 281.000 C 45.071 281.000,44.940 280.869,44.879 280.708 C 44.818 280.548,44.671 280.318,44.551 280.196 C 44.431 280.075,44.333 279.832,44.333 279.655 C 44.333 279.478,44.258 279.333,44.167 279.333 C 44.075 279.333,44.000 279.188,44.000 279.010 C 44.000 278.832,43.930 278.643,43.845 278.591 C 43.699 278.500,42.521 276.138,42.491 275.874 C 42.483 275.806,42.380 275.637,42.261 275.500 C 42.060 275.266,40.924 273.027,40.910 272.837 C 40.907 272.789,40.599 272.112,40.225 271.333 C 39.252 269.304,38.786 268.264,38.169 266.750 C 37.871 266.017,37.441 265.049,37.215 264.599 C 36.989 264.150,36.781 263.662,36.752 263.516 C 36.677 263.133,36.177 261.821,35.921 261.333 C 35.800 261.104,35.551 260.429,35.366 259.833 C 35.181 259.237,34.879 258.420,34.696 258.016 C 34.513 257.612,34.402 257.181,34.450 257.058 C 34.497 256.934,34.455 256.833,34.356 256.833 C 34.209 256.833,33.695 255.406,33.606 254.750 C 33.594 254.658,33.545 254.546,33.499 254.500 C 33.373 254.376,32.832 252.783,32.833 252.540 C 32.833 252.424,32.689 252.012,32.513 251.623 C 32.254 251.050,31.797 249.630,31.590 248.750 C 31.568 248.658,31.508 248.471,31.457 248.333 C 31.405 248.196,31.326 247.933,31.280 247.750 C 31.234 247.567,30.998 246.779,30.754 246.000 C 30.510 245.221,30.279 244.433,30.241 244.250 C 30.203 244.067,29.980 243.167,29.745 242.250 C 29.171 240.001,29.165 239.976,29.085 239.500 C 29.047 239.271,28.978 238.933,28.931 238.750 C 28.884 238.567,28.700 237.854,28.522 237.167 C 28.345 236.479,28.158 235.692,28.107 235.417 C 28.057 235.142,27.906 234.425,27.773 233.823 C 27.640 233.221,27.487 232.454,27.433 232.118 C 27.380 231.781,27.256 231.149,27.158 230.711 C 26.937 229.732,26.510 227.316,26.398 226.417 C 26.352 226.050,26.212 225.188,26.085 224.500 C 25.657 222.169,25.428 220.541,25.252 218.583 C 25.158 217.533,25.004 216.038,24.832 214.500 C 24.458 211.172,24.181 206.811,24.278 205.780 C 24.345 205.059,24.321 204.667,24.210 204.667 C 24.009 204.667,24.112 188.148,24.317 187.417 C 24.343 187.325,24.354 186.950,24.342 186.583 C 24.329 186.217,24.472 184.342,24.658 182.417 C 24.844 180.492,25.038 178.467,25.089 177.917 C 25.141 177.367,25.215 176.692,25.255 176.417 C 25.295 176.142,25.372 175.429,25.426 174.833 C 25.480 174.237,25.569 173.637,25.624 173.500 C 25.679 173.362,25.740 173.100,25.759 172.917 C 25.820 172.349,25.999 171.145,26.243 169.667 C 26.372 168.887,26.509 167.942,26.547 167.566 C 26.586 167.189,26.666 166.803,26.725 166.707 C 26.784 166.612,26.872 166.207,26.921 165.809 C 27.017 165.032,27.364 163.145,27.760 161.250 C 27.894 160.608,28.033 159.933,28.069 159.750 C 28.104 159.567,28.250 158.967,28.392 158.417 C 28.533 157.867,28.694 157.192,28.749 156.917 C 28.971 155.800,29.022 155.604,29.153 155.349 C 29.228 155.203,29.269 154.952,29.243 154.792 C 29.217 154.631,29.262 154.500,29.343 154.500 C 29.424 154.500,29.446 154.387,29.393 154.248 C 29.340 154.109,29.371 153.903,29.462 153.790 C 29.614 153.601,29.712 153.255,29.910 152.209 C 30.066 151.382,31.565 146.407,32.509 143.583 C 33.060 141.933,33.542 140.452,33.579 140.291 C 33.617 140.130,33.695 139.923,33.752 139.830 C 33.809 139.737,33.892 139.463,33.936 139.220 C 33.980 138.978,34.163 138.458,34.342 138.065 C 34.520 137.673,34.667 137.213,34.667 137.042 C 34.667 136.872,34.733 136.662,34.814 136.575 C 34.894 136.488,35.205 135.742,35.503 134.917 C 35.802 134.092,36.123 133.229,36.217 133.000 C 36.310 132.771,36.375 132.527,36.360 132.458 C 36.345 132.390,36.421 132.333,36.528 132.333 C 36.635 132.333,36.673 132.284,36.613 132.224 C 36.553 132.165,36.671 131.846,36.875 131.516 C 37.079 131.186,37.231 130.899,37.213 130.878 C 37.196 130.857,37.290 130.578,37.424 130.258 C 37.557 129.939,37.667 129.577,37.667 129.455 C 37.667 129.333,37.729 129.162,37.806 129.075 C 37.883 128.988,38.115 128.504,38.322 128.000 C 38.710 127.056,38.922 126.584,39.853 124.583 C 40.152 123.942,40.407 123.379,40.419 123.333 C 40.465 123.166,41.662 120.680,42.631 118.741 C 43.498 117.006,43.922 116.190,45.230 113.750 C 45.377 113.475,45.500 113.175,45.502 113.083 C 45.504 112.992,45.692 112.740,45.919 112.525 C 46.146 112.309,46.290 112.065,46.240 111.983 C 46.189 111.901,46.239 111.833,46.351 111.833 C 46.464 111.833,46.510 111.788,46.454 111.732 C 46.398 111.676,46.536 111.340,46.759 110.985 C 46.983 110.630,47.167 110.263,47.167 110.170 C 47.167 110.076,47.242 110.000,47.333 110.000 C 47.425 110.000,47.500 109.885,47.500 109.745 C 47.500 109.604,47.612 109.447,47.749 109.394 C 47.886 109.341,47.960 109.237,47.914 109.163 C 47.868 109.088,47.934 108.924,48.060 108.797 C 48.186 108.671,48.339 108.412,48.399 108.221 C 48.460 108.030,48.692 107.662,48.915 107.403 C 49.138 107.143,49.288 106.899,49.248 106.859 C 49.209 106.820,49.324 106.580,49.505 106.326 C 49.686 106.073,49.833 105.818,49.833 105.759 C 49.833 105.701,49.972 105.450,50.143 105.202 C 51.658 102.989,52.818 101.166,52.712 101.164 C 52.641 101.163,52.658 101.106,52.750 101.039 C 52.842 100.972,53.328 100.298,53.830 99.542 C 54.333 98.785,54.801 98.167,54.872 98.167 C 54.942 98.167,55.000 98.062,55.000 97.934 C 55.000 97.807,55.117 97.657,55.261 97.602 C 55.404 97.547,55.480 97.436,55.430 97.355 C 55.380 97.274,55.600 96.930,55.919 96.592 C 56.239 96.253,56.500 95.886,56.500 95.775 C 56.500 95.665,56.706 95.348,56.958 95.072 C 57.210 94.796,57.430 94.513,57.447 94.443 C 57.463 94.373,57.634 94.113,57.826 93.866 C 58.018 93.619,58.593 92.832,59.104 92.117 C 59.616 91.402,60.251 90.579,60.517 90.288 C 60.783 89.997,61.000 89.704,61.000 89.636 C 61.000 89.569,61.300 89.207,61.667 88.833 C 62.033 88.459,62.333 88.116,62.333 88.070 C 62.333 88.024,62.410 87.895,62.503 87.785 C 62.799 87.433,63.230 86.887,63.917 85.992 C 64.283 85.513,64.808 84.886,65.083 84.597 C 65.358 84.307,65.883 83.706,66.250 83.259 C 66.617 82.813,67.217 82.103,67.585 81.682 C 67.952 81.261,68.477 80.658,68.751 80.342 C 69.026 80.026,69.587 79.420,70.000 78.995 C 70.412 78.570,71.425 77.496,72.250 76.609 C 74.563 74.123,78.453 70.290,81.280 67.714 C 81.905 67.144,82.979 66.151,83.667 65.509 C 84.354 64.867,85.008 64.339,85.119 64.337 C 85.230 64.335,85.402 64.183,85.500 64.000 C 85.598 63.817,85.761 63.667,85.862 63.667 C 85.963 63.667,86.218 63.498,86.429 63.292 C 86.641 63.085,87.025 62.710,87.284 62.458 C 87.542 62.206,87.808 62.000,87.874 62.000 C 87.940 62.000,88.264 61.737,88.595 61.417 C 88.925 61.096,89.306 60.833,89.441 60.833 C 89.576 60.833,89.640 60.758,89.583 60.667 C 89.527 60.575,89.553 60.500,89.643 60.500 C 89.732 60.500,90.013 60.279,90.268 60.010 C 90.522 59.740,90.791 59.557,90.865 59.603 C 90.939 59.649,91.000 59.605,91.000 59.505 C 91.000 59.405,91.124 59.275,91.275 59.217 C 91.427 59.159,91.809 58.861,92.124 58.555 C 92.439 58.249,92.765 58.041,92.848 58.093 C 92.932 58.144,93.000 58.105,93.000 58.005 C 93.000 57.905,93.120 57.777,93.267 57.721 C 93.413 57.664,93.700 57.460,93.904 57.267 C 94.504 56.700,94.993 56.333,95.151 56.333 C 95.232 56.333,95.341 56.221,95.394 56.083 C 95.446 55.946,95.604 55.833,95.745 55.833 C 95.885 55.833,96.000 55.764,96.000 55.680 C 96.000 55.596,96.281 55.356,96.625 55.148 C 96.969 54.939,97.310 54.670,97.383 54.551 C 97.457 54.431,97.607 54.333,97.718 54.333 C 97.829 54.333,98.107 54.165,98.335 53.958 C 98.563 53.752,99.462 53.117,100.333 52.548 C 101.204 51.978,102.002 51.439,102.107 51.350 C 102.212 51.260,102.343 51.232,102.399 51.288 C 102.455 51.343,102.500 51.297,102.500 51.185 C 102.500 51.072,102.575 51.027,102.667 51.083 C 102.758 51.140,102.833 51.115,102.833 51.027 C 102.833 50.871,105.384 49.114,105.567 49.143 C 105.617 49.151,105.859 48.973,106.104 48.746 C 106.348 48.519,106.619 48.333,106.705 48.333 C 106.792 48.333,107.212 48.095,107.639 47.804 C 109.149 46.776,109.321 46.667,109.418 46.667 C 109.472 46.667,109.926 46.404,110.428 46.083 C 110.929 45.763,111.379 45.500,111.428 45.500 C 111.476 45.500,111.912 45.247,112.396 44.937 C 112.880 44.627,113.439 44.322,113.637 44.259 C 113.836 44.196,114.092 44.053,114.207 43.941 C 114.322 43.829,114.698 43.605,115.042 43.444 C 115.385 43.283,115.667 43.080,115.667 42.992 C 115.667 42.905,115.818 42.833,116.002 42.833 C 116.382 42.833,116.907 42.568,117.458 42.096 C 117.665 41.920,117.833 41.822,117.833 41.879 C 117.833 41.935,118.302 41.716,118.875 41.391 C 119.448 41.066,120.291 40.651,120.750 40.469 C 121.208 40.288,121.658 40.078,121.750 40.004 C 121.955 39.838,124.556 38.535,125.917 37.916 C 126.467 37.666,127.367 37.257,127.917 37.006 C 128.467 36.756,129.254 36.417,129.667 36.253 C 130.079 36.089,130.840 35.740,131.357 35.478 C 131.874 35.215,132.391 35.000,132.507 35.000 C 132.622 35.000,133.099 34.821,133.567 34.601 C 134.374 34.222,134.984 33.966,135.167 33.928 C 135.212 33.919,135.862 33.663,136.609 33.360 C 137.357 33.056,138.070 32.788,138.193 32.763 C 138.456 32.709,138.827 32.564,139.786 32.140 C 140.173 31.970,140.548 31.843,140.620 31.858 C 140.691 31.874,140.975 31.793,141.250 31.679 C 142.165 31.297,143.650 30.872,143.742 30.964 C 143.792 31.015,143.833 30.981,143.833 30.889 C 143.833 30.797,143.927 30.713,144.042 30.702 C 144.218 30.685,145.218 30.365,149.417 28.979 C 149.692 28.888,150.029 28.783,150.167 28.746 C 150.304 28.709,150.942 28.534,151.583 28.356 C 153.632 27.790,156.018 27.162,156.390 27.092 C 156.588 27.055,156.787 27.008,156.833 26.987 C 156.879 26.966,156.992 26.935,157.083 26.917 C 157.175 26.899,157.362 26.843,157.500 26.792 C 158.213 26.529,162.886 25.513,163.016 25.593 C 163.099 25.644,163.167 25.622,163.167 25.543 C 163.167 25.420,164.650 25.094,166.000 24.922 C 166.229 24.892,166.904 24.751,167.500 24.608 C 168.096 24.464,168.733 24.351,168.917 24.356 C 169.100 24.361,169.438 24.313,169.667 24.250 C 170.114 24.126,172.490 23.721,173.583 23.582 C 173.950 23.536,174.925 23.388,175.750 23.255 C 176.575 23.121,177.662 22.971,178.167 22.921 C 178.671 22.872,179.346 22.794,179.667 22.748 C 179.987 22.703,180.700 22.629,181.250 22.586 C 181.800 22.542,183.395 22.403,184.794 22.275 C 186.193 22.148,187.639 22.079,188.007 22.122 C 188.376 22.164,188.778 22.115,188.901 22.013 C 189.033 21.904,189.616 21.845,190.313 21.872 C 190.966 21.896,191.500 21.865,191.500 21.801 C 191.500 21.738,192.411 21.683,193.525 21.679 C 194.639 21.675,195.595 21.624,195.650 21.565 C 195.759 21.450,205.191 21.593,208.833 21.766 M156.000 104.042 L 156.000 153.417 106.625 153.417 C 79.469 153.417,57.231 153.473,57.208 153.542 C 57.185 153.610,57.167 173.467,57.167 197.667 L 57.167 241.667 106.583 241.667 L 156.000 241.667 156.000 291.084 L 156.000 340.501 200.001 340.459 L 244.002 340.417 244.042 291.083 L 244.083 241.750 293.459 241.708 L 342.834 241.666 342.792 197.541 L 342.750 153.417 293.375 153.375 L 244.000 153.333 244.000 104.000 L 244.000 54.667 200.000 54.667 L 156.000 54.667 156.000 104.042 " stroke="none" fill="#fc0404" fill-rule="evenodd"></path><path id="path1" d="" stroke="none" fill="#1000404" fill-rule="evenodd"></path><path id="path2" d="" stroke="none" fill="#1000404" fill-rule="evenodd"></path><path id="path3" d="" stroke="none" fill="#1000404" fill-rule="evenodd"></path><path id="path4" d="" stroke="none" fill="#1000404" fill-rule="evenodd"></path></g></svg>